@startuml
skinparam monochrome true
skinparam packageStyle rectangle
skinparam shadowing false
skinparam classAttributeIconSize 0
hide circle
hide methods

title Domain Model - US02 Register a job

class HumanResourceManager {
}

class Collaborator {
    name
    dateOfBirth
    admissionDate
    phoneNumber
    taxpayer
    email
}

class Document{
    docType
    number
}

class Address {
    streetName
    postCode
    doorNumber
}

class Job{
    name
}

Collaborator "1" - "1" Document : has >

Collaborator "1..*" -- "1" Address : lives >

Collaborator  <|--  HumanResourceManager

HumanResourceManager "1" - "1..*" Job : Registers >

@enduml